<?xml version="1.0" encoding="utf-8"?>
<!-- Generator: Adobe Illustrator 24.3.0, SVG Export Plug-In . SVG Version: 6.00 Build 0)  -->
<svg version="1.1" id="Layer_1" xmlns="http://www.w3.org/2000/svg" xmlns:xlink="http://www.w3.org/1999/xlink" x="0px" y="0px"
	 viewBox="0 0 356 97" style="enable-background:new 0 0 356 97;" xml:space="preserve">
<style type="text/css">
	.st0{fill:none;}
	.st1{fill:#5A3B1A;}
</style>
<rect x="193" y="83.5" class="st0" width="163" height="12.9"/>
<rect x="86.7" y="3.2" class="st0" width="70.3" height="14"/>
<g>
	<path class="st1" d="M109.7,82.8h-5.1v-1.4l1.9-1.7c0.3-0.3,0.6-0.6,0.8-0.8c0.2-0.2,0.4-0.4,0.5-0.7c0.1-0.2,0.2-0.4,0.2-0.7v-0.1
		c0-0.2,0-0.4-0.1-0.6c-0.1-0.2-0.2-0.3-0.4-0.4c-0.2-0.1-0.5-0.1-0.8-0.1c-0.4,0-0.7,0.1-1.1,0.2c-0.3,0.1-0.6,0.2-0.9,0.4l0.1-1.4
		c0.2-0.1,0.4-0.2,0.6-0.3c0.2-0.1,0.5-0.1,0.7-0.2c0.3-0.1,0.6-0.1,0.9-0.1c0.9,0,1.5,0.2,1.9,0.6c0.4,0.4,0.7,1,0.7,1.6v0.1
		c0,0.4-0.1,0.7-0.2,1c-0.1,0.3-0.3,0.6-0.6,0.9c-0.3,0.3-0.6,0.7-1,1l-1.3,1.2v0.3l-0.7-0.2h3.7L109.7,82.8z"/>
	<path class="st1" d="M113.5,83c-1,0-1.7-0.3-2.2-0.8c-0.5-0.5-0.7-1.3-0.7-2.3v-1.7c0-1,0.2-1.8,0.7-2.3c0.5-0.5,1.3-0.8,2.2-0.8
		c1,0,1.7,0.3,2.2,0.8c0.5,0.5,0.7,1.3,0.7,2.3v1.6c0,1-0.3,1.8-0.7,2.3C115.2,82.7,114.5,83,113.5,83z M113.5,81.7
		c0.4,0,0.8-0.1,1.1-0.4c0.2-0.4,0.4-0.9,0.4-1.3v-1.8c0-0.5-0.1-0.9-0.4-1.3c-0.6-0.6-1.5-0.6-2.1,0l0,0c-0.2,0.4-0.4,0.9-0.3,1.3
		v1.8c0,0.5,0.1,0.9,0.3,1.3C112.7,81.5,113,81.7,113.5,81.7L113.5,81.7z"/>
	<path class="st1" d="M122.2,82.8h-5.1v-1.4l1.9-1.7c0.3-0.3,0.6-0.6,0.8-0.8c0.2-0.2,0.4-0.4,0.5-0.7c0.1-0.2,0.2-0.4,0.2-0.7v-0.1
		c0-0.2,0-0.4-0.1-0.6c-0.1-0.2-0.2-0.3-0.4-0.4c-0.2-0.1-0.5-0.1-0.8-0.1c-0.4,0-0.7,0.1-1.1,0.2c-0.3,0.1-0.6,0.2-0.9,0.4l0.1-1.4
		c0.2-0.1,0.4-0.2,0.6-0.3c0.2-0.1,0.5-0.1,0.7-0.2c0.3-0.1,0.6-0.1,0.9-0.1c0.9,0,1.5,0.2,1.9,0.6c0.4,0.4,0.7,1,0.7,1.6v0.1
		c0,0.4-0.1,0.7-0.2,1c-0.1,0.3-0.3,0.6-0.6,0.9c-0.3,0.3-0.6,0.7-1,1l-1.3,1.2v0.3l-0.7-0.2h3.7L122.2,82.8L122.2,82.8z"/>
	<path class="st1" d="M125.9,83c-0.6,0-1.1-0.1-1.6-0.4c-0.4-0.2-0.8-0.6-1-1c-0.2-0.5-0.4-1.1-0.4-1.7v-1.5c0-1.1,0.3-1.9,0.8-2.4
		c0.5-0.6,1.3-0.9,2.4-0.9c0.4,0,0.8,0,1.3,0.1c0.3,0.1,0.6,0.2,0.9,0.3l0.1,1.3c-0.2-0.1-0.4-0.2-0.6-0.2c-0.2-0.1-0.4-0.1-0.7-0.1
		c-0.3,0-0.5-0.1-0.8-0.1c-0.5,0-1,0.1-1.4,0.5c-0.4,0.4-0.5,1-0.5,1.6V80c0,0.3,0,0.7,0.1,1c0.1,0.2,0.3,0.4,0.5,0.6
		c0.2,0.1,0.5,0.2,0.8,0.2c0.6,0.1,1.2-0.3,1.3-1c0-0.1,0-0.2,0-0.2v-0.2c0-0.2,0-0.4-0.1-0.6c-0.1-0.2-0.2-0.3-0.4-0.4
		c-0.2-0.1-0.4-0.1-0.7-0.1c-0.2,0-0.5,0-0.7,0.1s-0.4,0.2-0.5,0.4s-0.3,0.4-0.3,0.6l-0.1-1h0.3c0.1-0.2,0.2-0.4,0.4-0.7
		c0.2-0.2,0.4-0.4,0.7-0.5c0.3-0.1,0.7-0.2,1-0.2c0.6-0.1,1.2,0.2,1.6,0.6c0.4,0.5,0.6,1.1,0.5,1.7v0.3c0,0.7-0.2,1.3-0.7,1.8
		C127.5,82.7,126.8,83,125.9,83z"/>
	<path class="st1" d="M132.4,78.5c0-1,0.3-1.7,0.8-2.1s1.3-0.7,2.3-0.7c0.6,0,1.2,0.1,1.7,0.4c0.4,0.2,0.7,0.6,0.8,1.1h0
		c0-0.4,0.3-0.8,0.6-1.1c0.4-0.3,0.9-0.4,1.4-0.4c0.6,0,1.2,0.2,1.7,0.6c0.4,0.4,0.6,1,0.6,1.7v0.5c0,0.4-0.1,0.8-0.2,1.1
		c-0.1,0.3-0.4,0.5-0.7,0.6v0.1l-1.4-0.3c0.3-0.1,0.5-0.2,0.7-0.4c0.1-0.3,0.2-0.6,0.2-1v-0.5c0-0.3-0.1-0.6-0.2-0.9
		c-0.2-0.2-0.5-0.3-0.8-0.3c-0.3,0-0.6,0.1-0.8,0.3c-0.2,0.2-0.3,0.5-0.2,0.9l0,1.7l-1.4,0.1l0-1.6c0-0.4-0.1-0.9-0.4-1.2
		c-0.4-0.3-0.9-0.4-1.4-0.4c-0.5,0-1,0.1-1.4,0.4c-0.3,0.3-0.5,0.7-0.5,1.2v0h0.1l-0.1,0.3v0.5c0,0.2,0,0.4,0.2,0.6
		c0.1,0.1,0.3,0.2,0.5,0.2c0.2,0,0.4-0.1,0.5-0.2c0.1-0.1,0.2-0.3,0.1-0.5v-0.1c0-0.2-0.1-0.4-0.1-0.5c-0.1-0.1-0.3-0.2-0.4-0.1
		c-0.1,0-0.3,0-0.4,0.1c-0.1,0.1-0.2,0.2-0.3,0.3l0-0.4c0.1-0.3,0.2-0.6,0.4-0.8c0.3-0.2,0.6-0.3,0.9-0.3c0.4,0,0.7,0.1,1,0.4
		c0.2,0.3,0.4,0.7,0.4,1.2v0.2c0,0.5-0.1,0.9-0.5,1.3c-0.4,0.3-1,0.5-1.5,0.4c-0.1,0-0.2,0-0.3,0s-0.2,0-0.3-0.1
		c-0.1,0-0.1-0.1-0.1-0.1c0,0-0.1-0.1-0.1-0.1c-0.4-0.1-0.7-0.3-0.8-0.6c-0.2-0.4-0.3-0.7-0.3-1.1L132.4,78.5z M138.5,82.8l-0.2-1.2
		c0.3,0.1,0.6,0.2,0.9,0.3c0.3,0.1,0.7,0.1,1,0.1c0.2,0,0.4,0,0.6-0.1c0.1-0.1,0.2-0.2,0.2-0.4v0c0-0.3-0.2-0.5-0.7-0.5
		c-0.2,0-0.3,0-0.5,0.1c-0.2,0-0.4,0.1-0.5,0.2c-0.2,0.1-0.4,0.2-0.7,0.3l-1.8,0.9c-0.4,0.2-0.8,0.4-1.2,0.5s-0.8,0.2-1.3,0.2
		c-0.5,0-1-0.1-1.4-0.4c-0.3-0.2-0.5-0.6-0.5-1v0c0-0.3,0.1-0.5,0.2-0.7c0.2-0.2,0.4-0.3,0.7-0.4v-0.1l1.1,0.4
		c-0.1,0-0.3,0.1-0.4,0.1c-0.1,0.1-0.1,0.2-0.1,0.4v0c0,0.4,0.2,0.5,0.7,0.5c0.3,0,0.5-0.1,0.8-0.1c0.3-0.1,0.6-0.2,0.8-0.4l1.8-0.8
		c0.3-0.1,0.5-0.2,0.8-0.3c0.2-0.1,0.5-0.2,0.7-0.2c0.3-0.1,0.6-0.1,0.9-0.1c0.1,0,0.2,0,0.3,0c0.1,0,0.2,0,0.2,0
		c0.1,0,0.1,0,0.1,0.1c0.1,0,0.1,0.1,0.1,0.1c0.4,0.1,0.7,0.2,0.9,0.5c0.2,0.3,0.3,0.6,0.3,0.9v0c0,0.4-0.1,0.9-0.5,1.2
		c-0.4,0.3-1,0.4-1.5,0.4c-0.3,0-0.7,0-1-0.1C139,83,138.7,83,138.5,82.8L138.5,82.8z"/>
	<path class="st1" d="M143.4,78.7c0-1,0.2-1.8,0.7-2.3c0.4-0.5,1.1-0.7,1.9-0.7c0.5,0,1.1,0.1,1.5,0.4c0.4,0.3,0.6,0.7,0.6,1.2
		l0,2.3h-0.7v-1.2c0-1-0.4-1.5-1.2-1.5c-0.9,0-1.3,0.6-1.3,1.7v1.3c0,0.5,0.1,1.1,0.2,1.6c0.1,0.4,0.3,0.9,0.5,1.3h-1.5
		c-0.2-0.4-0.4-0.8-0.5-1.3c-0.1-0.5-0.2-1.1-0.2-1.6V78.7z M147.4,78.9h1.5v3.9h-1.5V78.9z M148.9,79.6l-1.1-0.1l0-2.2h0.4
		c0.1-0.5,0.3-0.9,0.7-1.2c0.4-0.3,1-0.5,1.5-0.4c0.9,0,1.5,0.2,1.9,0.7s0.6,1.3,0.6,2.3v1.3c0,0.5-0.1,1.1-0.2,1.6
		c-0.1,0.4-0.3,0.9-0.5,1.3h-1.5c0.2-0.4,0.4-0.8,0.5-1.3c0.1-0.5,0.2-1,0.2-1.6v-1.3c0-1.1-0.4-1.7-1.3-1.7c-0.4,0-0.7,0.1-0.9,0.4
		c-0.2,0.3-0.3,0.7-0.3,1.1V79.6z"/>
	<path class="st1" d="M155.9,80.4c0.1,0,0.1,0,0.2,0c0.1,0,0.1,0,0.2,0c0.5,0,1,0.2,1.4,0.6c0.4,0.4,0.5,1,0.5,1.5v0.2
		c0.1,0.6-0.1,1.2-0.6,1.6c-1,0.7-2.4,0.7-3.3,0c-0.4-0.4-0.6-0.9-0.6-1.6v-0.2c0-0.6,0.1-1.2,0.6-1.6
		C154.7,80.6,155.3,80.4,155.9,80.4z M158,78.1c0,0.4-0.1,0.8-0.2,1.2c-0.1,0.4-0.3,0.7-0.5,1s-0.5,0.6-0.9,0.7l-1.1-0.4
		c0.2-0.2,0.4-0.4,0.6-0.6c0.2-0.2,0.3-0.5,0.4-0.8c0.1-0.3,0.1-0.6,0.1-0.9v-0.1c0-0.3-0.1-0.7-0.3-0.9c-0.2-0.2-0.5-0.3-0.9-0.3
		c-0.2,0-0.5,0-0.7,0.1c-0.2,0.1-0.4,0.2-0.6,0.3l0.1-1.3c0.2-0.1,0.4-0.2,0.7-0.3c0.3-0.1,0.6-0.1,0.9-0.1c0.6,0,1.2,0.2,1.7,0.6
		c0.4,0.4,0.6,1,0.6,1.8V78.1z M155.9,83.8c0.2,0,0.5-0.1,0.7-0.2c0.1-0.2,0.2-0.5,0.2-0.7v-0.2c0-0.3-0.1-0.5-0.2-0.7
		c-0.4-0.3-0.9-0.3-1.3,0c-0.1,0.2-0.2,0.5-0.2,0.7v0.2c0,0.3,0.1,0.5,0.2,0.7C155.4,83.7,155.7,83.8,155.9,83.8L155.9,83.8z"/>
	<path class="st1" d="M162.2,77c-0.4,0-0.9,0.1-1.2,0.5c-0.3,0.4-0.4,0.9-0.4,1.4v1.2c0,0.5,0.1,1,0.2,1.5c0.1,0.4,0.3,0.8,0.5,1.2
		h-1.5c-0.2-0.4-0.4-0.8-0.5-1.2c-0.1-0.5-0.2-1-0.2-1.6v-1.2c0-1,0.3-1.8,0.8-2.4c0.5-0.5,1.3-0.8,2.3-0.8c1,0,1.8,0.3,2.3,0.8
		s0.7,1.3,0.7,2.3V80c0,0.5-0.1,1-0.2,1.6c-0.1,0.4-0.4,0.9-0.7,1.2H163v-0.1c0.2-0.4,0.4-0.8,0.5-1.2c0.1-0.5,0.2-1,0.2-1.5v-1.2
		c0-0.5-0.1-1-0.4-1.4C163.1,77.1,162.6,76.9,162.2,77z M164.4,81.6h3.8v1.2h-5.1L164.4,81.6z M166.9,75.9h1.5v6.9h-1.5V75.9z"/>
	<path class="st1" d="M173.6,76.9c-0.8,0-1.4,0.2-1.8,0.6c-0.4,0.4-0.6,1-0.6,1.9v0.7c0,0.5,0.1,1,0.2,1.4c0.1,0.4,0.3,0.8,0.5,1.2
		h-1.5c-0.2-0.4-0.4-0.8-0.5-1.2c-0.1-0.5-0.1-1-0.1-1.5v-0.7c0-1.2,0.3-2.1,1-2.8c0.7-0.6,1.6-1,2.9-1c1.3,0,2.2,0.3,2.8,0.9
		c0.6,0.6,1,1.5,1,2.7v1.2c0,0.8-0.2,1.4-0.6,1.8c-0.4,0.4-1,0.6-1.7,0.6c-0.6,0.1-1.3-0.1-1.7-0.6c-0.4-0.4-0.6-1-0.6-1.6v-0.6
		c0-0.6,0.1-1.1,0.4-1.6c0.3-0.4,0.8-0.5,1.3-0.5c0.4,0,0.7,0.1,1,0.3c0.3,0.2,0.4,0.5,0.5,0.8v0.4c-0.1-0.1-0.2-0.2-0.4-0.3
		c-0.2-0.1-0.4-0.1-0.5-0.1c-0.2,0-0.5,0.1-0.7,0.3c-0.2,0.2-0.2,0.5-0.2,0.8v0.5c0,0.3,0.1,0.5,0.2,0.8c0.2,0.2,0.4,0.3,0.7,0.3
		c0.3,0,0.5-0.1,0.7-0.3c0.2-0.3,0.2-0.6,0.2-0.9v-1.1l-0.1-0.4h0.1c0-0.4-0.1-0.8-0.3-1.1c-0.2-0.3-0.4-0.6-0.8-0.7
		C174.4,77,174,76.9,173.6,76.9z"/>
	<path class="st1" d="M180.1,82.8h-1.5v-6.6c0-0.7-0.1-1.1-0.4-1.4c-0.3-0.3-0.7-0.5-1.2-0.4c-0.4,0-0.7,0.1-1,0.1
		c-0.4,0.1-0.7,0.3-1.1,0.4l0.2-1.3c0.3-0.2,0.6-0.3,1-0.4c0.4-0.1,0.8-0.1,1.2-0.1c1,0,1.6,0.3,2.1,0.8s0.7,1.3,0.7,2.3L180.1,82.8
		z"/>
	<path class="st1" d="M188.9,82.8h-5.1v-1.4l1.9-1.7c0.3-0.3,0.6-0.6,0.8-0.8c0.2-0.2,0.4-0.4,0.5-0.7c0.1-0.2,0.2-0.4,0.2-0.7v-0.1
		c0-0.2,0-0.4-0.1-0.6c-0.1-0.2-0.2-0.3-0.4-0.4c-0.2-0.1-0.5-0.1-0.8-0.1c-0.4,0-0.7,0.1-1.1,0.2c-0.3,0.1-0.6,0.2-0.9,0.4l0.1-1.4
		c0.2-0.1,0.4-0.2,0.6-0.3c0.2-0.1,0.5-0.1,0.7-0.2c0.3-0.1,0.6-0.1,0.9-0.1c0.9,0,1.5,0.2,1.9,0.6c0.4,0.4,0.7,1,0.7,1.6v0.1
		c0,0.4-0.1,0.7-0.2,1c-0.1,0.3-0.3,0.6-0.6,0.9c-0.3,0.3-0.6,0.7-1,1l-1.3,1.2v0.3l-0.7-0.2h3.7L188.9,82.8z"/>
	<path class="st1" d="M192.8,82.8h-1.6v-6h-0.1l-1.6,0.8l0-1.5l1.8-0.9h1.4V82.8z"/>
	<path class="st1" d="M194,81h1.4c0,0.1,0,0.2,0,0.3s0,0.2,0,0.4c0,0.5-0.1,1-0.2,1.4c-0.2,0.4-0.4,0.9-0.7,1.2l-1-0.3
		c0.2-0.3,0.3-0.7,0.4-1c0.1-0.4,0.1-0.8,0.1-1.2c0-0.1,0-0.3,0-0.4C194,81.2,194,81.1,194,81z"/>
	<path class="st1" d="M201.5,82.8h-5.1v-1.4l1.9-1.7c0.3-0.3,0.6-0.6,0.8-0.8c0.2-0.2,0.4-0.4,0.5-0.7c0.1-0.2,0.2-0.4,0.2-0.7v-0.1
		c0-0.2,0-0.4-0.1-0.6c-0.1-0.2-0.2-0.3-0.4-0.4c-0.2-0.1-0.5-0.1-0.8-0.1c-0.4,0-0.7,0.1-1.1,0.2c-0.3,0.1-0.6,0.2-0.9,0.4l0.1-1.4
		c0.2-0.1,0.4-0.2,0.6-0.3c0.2-0.1,0.5-0.1,0.7-0.2c0.3-0.1,0.6-0.1,0.9-0.1c0.9,0,1.5,0.2,1.9,0.6c0.4,0.4,0.7,1,0.7,1.6v0.1
		c0,0.4-0.1,0.7-0.2,1c-0.1,0.3-0.3,0.6-0.6,0.9c-0.3,0.3-0.6,0.7-1,1l-1.3,1.2v0.3l-0.7-0.2h3.7L201.5,82.8z"/>
	<path class="st1" d="M207.2,82.8h-5.1v-1.4l1.9-1.7c0.3-0.3,0.6-0.6,0.8-0.8c0.2-0.2,0.4-0.4,0.5-0.7c0.1-0.2,0.2-0.4,0.2-0.7v-0.1
		c0-0.2,0-0.4-0.1-0.6s-0.2-0.3-0.4-0.4c-0.2-0.1-0.5-0.1-0.8-0.1c-0.4,0-0.7,0.1-1.1,0.2c-0.3,0.1-0.6,0.2-0.9,0.4l0.1-1.4
		c0.2-0.1,0.4-0.2,0.6-0.3c0.2-0.1,0.5-0.1,0.7-0.2c0.3-0.1,0.6-0.1,0.9-0.1c0.9,0,1.5,0.2,1.9,0.6c0.4,0.4,0.7,1,0.7,1.6v0.1
		c0,0.4-0.1,0.7-0.2,1c-0.1,0.3-0.3,0.6-0.6,0.9c-0.3,0.3-0.6,0.7-1,1l-1.3,1.2v0.3l-0.7-0.2h3.7L207.2,82.8z"/>
	<path class="st1" d="M208.3,81h1.4c0,0.1,0,0.2,0,0.3s0,0.2,0,0.4c0,0.5-0.1,1-0.2,1.4c-0.2,0.4-0.4,0.9-0.7,1.2l-1-0.3
		c0.2-0.3,0.3-0.7,0.4-1c0.1-0.4,0.1-0.8,0.1-1.2c0-0.1,0-0.3,0-0.4C208.3,81.2,208.3,81.1,208.3,81z"/>
	<path class="st1" d="M215.7,82.8h-5.1v-1.4l1.9-1.7c0.3-0.3,0.6-0.6,0.8-0.8c0.2-0.2,0.4-0.4,0.5-0.7c0.1-0.2,0.2-0.4,0.2-0.7v-0.1
		c0-0.2,0-0.4-0.1-0.6s-0.2-0.3-0.4-0.4c-0.2-0.1-0.5-0.1-0.8-0.1c-0.4,0-0.7,0.1-1.1,0.2c-0.3,0.1-0.6,0.2-0.9,0.4l0.1-1.4
		c0.2-0.1,0.4-0.2,0.6-0.3c0.2-0.1,0.5-0.1,0.7-0.2c0.3-0.1,0.6-0.1,0.9-0.1c0.9,0,1.5,0.2,1.9,0.6c0.4,0.4,0.7,1,0.7,1.6v0.1
		c0,0.4-0.1,0.7-0.2,1c-0.1,0.3-0.3,0.6-0.6,0.9c-0.3,0.3-0.6,0.7-1,1l-1.3,1.2v0.3l-0.7-0.2h3.7L215.7,82.8z"/>
	<path class="st1" d="M218.8,83c-0.3,0-0.6,0-0.9-0.1c-0.2,0-0.5-0.1-0.7-0.1c-0.2-0.1-0.4-0.1-0.5-0.2l-0.1-1.4
		c0.3,0.1,0.6,0.3,1,0.4c0.4,0.1,0.8,0.1,1.2,0.1c0.3,0,0.6,0,0.9-0.1c0.2-0.1,0.4-0.2,0.4-0.3c0.1-0.2,0.1-0.4,0.1-0.5v-0.1
		c0-0.2,0-0.4-0.1-0.5c-0.1-0.1-0.3-0.2-0.4-0.3c-0.3-0.1-0.5-0.1-0.8-0.1l-1.3,0v-1.2l1.3,0c0.3,0,0.5,0,0.8-0.1
		c0.2-0.1,0.3-0.2,0.4-0.3c0.1-0.1,0.1-0.3,0.1-0.5v-0.1c0-0.3-0.1-0.5-0.3-0.7c-0.3-0.2-0.7-0.3-1.1-0.2c-0.4,0-0.8,0.1-1.2,0.1
		c-0.3,0.1-0.7,0.2-1,0.3l0.1-1.3c0.3-0.1,0.6-0.3,1-0.4c0.4-0.1,0.9-0.1,1.3-0.1c0.9,0,1.6,0.2,2,0.5c0.4,0.4,0.7,0.9,0.7,1.5v0.1
		c0,0.3-0.1,0.5-0.1,0.8c-0.1,0.2-0.3,0.4-0.5,0.6c-0.2,0.1-0.5,0.3-0.8,0.3V79l-0.1-0.2c0.4,0,0.9,0.2,1.2,0.6
		c0.3,0.3,0.4,0.8,0.4,1.2v0.2c0,0.6-0.2,1.2-0.7,1.6C220.5,82.7,219.7,83,218.8,83z"/>
	<path class="st1" d="M222.6,81h1.4c0,0.1,0,0.2,0,0.3c0,0.1,0,0.3,0,0.4c0,0.5-0.1,1-0.2,1.4c-0.2,0.4-0.4,0.9-0.7,1.2l-1-0.3
		c0.2-0.3,0.3-0.7,0.4-1c0.1-0.4,0.1-0.8,0.1-1.2c0-0.1,0-0.3,0-0.4S222.6,81.1,222.6,81z"/>
	<path class="st1" d="M230.1,82.8H225v-1.4l1.9-1.7c0.3-0.3,0.6-0.6,0.8-0.8c0.2-0.2,0.4-0.4,0.5-0.7c0.1-0.2,0.2-0.4,0.2-0.7v-0.1
		c0-0.2,0-0.4-0.1-0.6c-0.1-0.2-0.2-0.3-0.4-0.4c-0.2-0.1-0.5-0.1-0.8-0.1c-0.4,0-0.7,0.1-1.1,0.2c-0.3,0.1-0.6,0.2-0.9,0.4l0.1-1.4
		c0.2-0.1,0.4-0.2,0.6-0.3c0.2-0.1,0.5-0.1,0.7-0.2c0.3-0.1,0.6-0.1,0.9-0.1c0.9,0,1.5,0.2,1.9,0.6c0.4,0.4,0.7,1,0.7,1.6v0.1
		c0,0.4-0.1,0.7-0.2,1c-0.1,0.3-0.3,0.6-0.6,0.9c-0.3,0.3-0.6,0.7-1,1l-1.3,1.2v0.3l-0.7-0.2h3.7L230.1,82.8z"/>
	<path class="st1" d="M235.6,82.8h-1.5v-4.7l0.1-1.9H234l-2.1,3.8v0.7l-0.6-0.5h5.2v1.3h-6.1V80l2.7-4.8h2.5V82.8z"/>
	<path class="st1" d="M237.4,81h1.4c0,0.1,0,0.2,0,0.3c0,0.1,0,0.3,0,0.4c0,0.5-0.1,1-0.2,1.4c-0.2,0.4-0.4,0.9-0.7,1.2l-1-0.3
		c0.2-0.3,0.3-0.7,0.4-1c0.1-0.4,0.1-0.8,0.1-1.2c0-0.1,0-0.3,0-0.4C237.4,81.2,237.4,81.1,237.4,81z"/>
	<path class="st1" d="M244.9,82.8h-5.1v-1.4l1.9-1.7c0.3-0.3,0.6-0.6,0.8-0.8c0.2-0.2,0.4-0.4,0.5-0.7c0.1-0.2,0.2-0.4,0.2-0.7v-0.1
		c0-0.2,0-0.4-0.1-0.6c-0.1-0.2-0.2-0.3-0.4-0.4c-0.2-0.1-0.5-0.1-0.8-0.1c-0.4,0-0.7,0.1-1.1,0.2c-0.3,0.1-0.6,0.2-0.9,0.4l0.1-1.4
		c0.2-0.1,0.4-0.2,0.6-0.3c0.2-0.1,0.5-0.1,0.7-0.2c0.3-0.1,0.6-0.1,0.9-0.1c0.9,0,1.5,0.2,1.9,0.6c0.4,0.4,0.7,1,0.7,1.6v0.1
		c0,0.4-0.1,0.7-0.2,1c-0.1,0.3-0.3,0.6-0.6,0.9c-0.3,0.3-0.6,0.7-1,1l-1.3,1.2v0.3l-0.7-0.2h3.7L244.9,82.8z"/>
	<path class="st1" d="M248.2,83c-0.4,0-0.9,0-1.3-0.1c-0.3-0.1-0.6-0.2-0.9-0.3l-0.1-1.4c0.2,0.1,0.4,0.2,0.6,0.3
		c0.2,0.1,0.5,0.1,0.8,0.2c0.3,0.1,0.6,0.1,0.9,0.1c0.3,0,0.6,0,0.9-0.1c0.2-0.1,0.4-0.2,0.5-0.4c0.1-0.2,0.1-0.4,0.1-0.7v-0.2
		c0-0.3-0.1-0.6-0.3-0.8c-0.2-0.2-0.5-0.3-0.8-0.3c-0.3,0-0.6,0.1-0.8,0.2c-0.2,0.1-0.4,0.3-0.5,0.5l-1.3-0.2v-4.4h5.1v1.3h-3.6v1.4
		l0,1h0.1c0.1-0.3,0.4-0.6,0.6-0.7c0.4-0.2,0.8-0.3,1.2-0.3c0.6-0.1,1.1,0.2,1.5,0.6c0.4,0.5,0.5,1.1,0.5,1.7v0.3
		c0,0.5-0.1,0.9-0.3,1.3c-0.2,0.4-0.5,0.7-1,0.9C249.4,82.9,248.8,83,248.2,83z"/>
	<path class="st1" d="M120.5,24.9c-2.8,2.7-5.6,5.5-8.4,8.3c-0.5-0.4-1-0.9-1.4-1.3c-3.3-2.8-7.1-4.7-11.5-5.5
		c-5.7-1-11.1,0.1-16.1,3.1c-2.8,1.7-5.3,4-7.2,6.7c-0.1,0.2-0.3,0.4-0.6,0.1c-3.1-2.1-6.1-4.1-9.2-6.2c-0.1-0.1-0.1-0.1-0.3-0.3
		c6-8.1,13.7-13.5,23.7-15.2C102.1,12.4,113.8,18,120.5,24.9z"/>
	<path class="st1" d="M194.2,41.7c-0.5-0.1-1.1-0.2-1.6-0.3c-3.7,0-6.5,1.5-8.1,5c-1.4,2.9-1.6,6-1.3,9.2c0.3,5,1.5,9.8,2.7,14.6
		c-0.1,0.1-0.2,0.1-0.3,0.1c-2.4,0.1-4.9,0.3-7.3,0.5c-0.4,0-0.6-0.1-0.7-0.5c-0.6-3.8-1.2-7.5-1.7-11.3c-0.2-1.6-0.1-3.1-0.2-4.7
		c0-1.6,0-3.2,0-4.8c0.1-3.8,1.1-7.3,3.7-10.3c1.8-2,4.1-3.4,6.7-4.1c4.4-1.2,8.9-1.3,13.3,0c1.4,0.4,2.7,1.1,3.8,2
		c0.2,0.1,0.4,0.2,0.7,0.1c3.5-1.2,7-0.9,10.4,0.1c2.3,0.7,4.4,2,6.1,3.8c0.1,0.1,0.1,0.1,0.1,0.2c0.7-0.6,1.4-1.3,2.1-1.8
		c1.9-1.5,4.2-2.2,6.6-2.5c1.7-0.2,3.4-0.1,5,0.3c2.9,0.7,4.8,2.5,5.9,5.2c0.9,2.1,1.4,4.4,1.7,6.7c0.2,2,0.5,3.9,0.8,5.9
		c0.1,0.7,0.4,1.5,0.7,2.1c0.9,1.8,2.1,2.6,4.7,1.9c1.1-0.3,1.6-1.2,2.1-2.1c0.7-1.3,1.1-2.9,1.1-4.4c0.3-5.6-0.8-11.1-3.1-16.2
		c-0.1-0.1-0.1-0.2-0.1-0.4c0.7-0.2,1.3-0.4,2-0.6c2-0.6,4-1.2,6-1.8c0.4-0.1,0.5,0,0.6,0.3c1.3,4,2.2,8.1,2.8,12.4
		c0.4,3.3,0.7,6.7,0.4,10c-0.1,1.5-0.5,3-1.1,4.4c-1,2.5-3.1,4.4-5.7,5.2c-3.1,1.1-6.5,1.3-9.7,0.7c-4.3-0.8-7.1-3.4-8.2-7.6
		c-0.5-2-0.8-4-1.1-6c-0.4-2.4-0.4-4.8-1.3-7.1c-0.7-1.7-2.2-2.4-4-2c-2.1,0.5-3,2-3.3,3.8c-0.3,1.5-0.4,3-0.4,4.5
		c0.1,3.3,0.4,6.5,0.6,9.8c0.1,1.8,0.3,3.6,0.4,5.3c0,0.4-0.1,0.4-0.4,0.4c-2.1,0.1-4.1,0.3-6.2,0.4l-2.3,0.1c0-0.2,0-0.4,0-0.6
		c0.1-3.3,0.2-6.5,0.2-9.8c0.1-3-0.1-6.1-1-9c-0.7-2-1.8-3.8-3.6-5c-0.9-0.6-1.8-1-2.9-1.1c-0.1,0-0.2,0-0.3,0
		c0.4,0.7,0.8,1.4,1.2,2.1c1.3,2.6,2,5.3,2.4,8.1c0.3,2.2,0.2,4.4-0.3,6.5c-1.1,4.6-3.9,7.7-8.6,8.8c-2.4,0.6-4.9,0.7-7.4,0.3
		c-5-0.9-8.3-3.8-9.5-8.8c-1.3-5.5-0.3-10.6,3.2-15.1c0.9-1.1,1.9-2,3.1-2.7c0.2-0.1,0.4-0.3,0.7-0.4L194.2,41.7z M193.9,55.9
		c0,0.4,0.1,1,0.2,1.7c0.3,2,1.6,3.5,3.5,3.8c1.6,0.3,3.3,0.3,4.8-0.2c1.5-0.4,2.4-1.4,2.8-2.9c0.1-0.7,0.3-1.4,0.3-2.1
		c0.2-2.7-0.6-5.2-1.6-7.6c-0.4-1.1-1.1-2.1-2-2.9c-0.2-0.2-0.4-0.3-0.7-0.2c-1.9,0.4-3.7,1.4-5,2.9C194.6,50.5,194,53,193.9,55.9
		L193.9,55.9z"/>
	<path class="st1" d="M130.4,68.1h-20.3c-0.7,0-0.7,0-0.7-0.7c0-4.4,0-8.8,0.1-13.2c0.1-3,0.3-5.9,1.2-8.8c0.7-2.6,1.8-5,3.6-7
		c2-2.2,4.7-3.5,7.6-3.7c2.9-0.3,5.8-0.2,8.6,0.6c4,1.1,6.3,3.8,7.3,7.7c0.7,2.6,0.8,5.2,0.9,7.8c0,1.8,0,3.6,0,5.3
		c0,0.8-0.1,0.9-0.8,0.9H121c-0.7,0-0.7,0-0.7-0.7c0-1.8,0-3.7,0-5.6c0-0.4,0.1-0.5,0.5-0.5c2.9,0,5.8,0,8.7,0
		c0.4,0,0.6-0.1,0.6-0.6c0.1-1.3,0.1-2.5-0.2-3.8c-0.4-2.2-1.8-3.5-4.1-3.6c-1.5,0-2.9,0.1-4.2,0.8c-1.2,0.7-2.2,1.8-2.8,3.1
		c-1,1.9-1.3,4-1.3,6.1c-0.1,2.7,0,5.4,0,8.1c0,0.5,0.3,0.5,0.6,0.5h23.4c0.9,0,0.9,0,0.9-0.9c0.1-8.9,0.1-17.8,0.2-26.8
		c0-0.5,0.1-0.6,0.6-0.6c2.6,0,5.2,0,7.7,0c0.4,0,0.6,0.1,0.6,0.6c0,11.4,0,22.8,0,34.2c0,0.5-0.1,0.7-0.7,0.7
		C144,68.1,137.2,68.1,130.4,68.1L130.4,68.1z"/>
	<path class="st1" d="M69.3,58.1c-0.5,1.2-0.9,2.3-1.4,3.3c-1.6,3.3-4.1,5.7-7.5,7.1c-4.2,1.8-9.3,0.6-12.6-2.8
		c-0.1-0.1-0.2-0.3-0.4-0.4c-0.6,0.5-1.1,1-1.6,1.4c-2.6,1.9-5.5,2.1-8.4,1.1c-3.8-1.3-5.9-4.4-6-8.5c-0.1-4.5,1.8-7.9,5.5-10.4
		c3.1-2.1,6.7-3.1,10.3-3.5c4.2-0.5,8.5-0.3,12.7,0.6c0.7,0.1,1.4,0.4,2.1,0.5c0-0.1,0-0.2,0-0.3c-0.4-1.9-1.7-3.6-3.6-4.3
		c-4-1.7-7.8-1.1-11.5,1.1c-0.5,0.4-1.1,0.8-1.6,1.3c-0.1,0.1-0.4,0.1-0.4,0.1c-2.1-1.3-4.2-2.6-6.4-4c0.3-0.2,0.5-0.4,0.7-0.6
		c2.5-2.2,5.1-4.3,8.3-5.5c1.9-0.7,4-1.1,6-1c3.6,0.1,6.9,1,9.8,3c3.4,2.4,5.7,6,6.2,10.1c0.1,0.9,0.2,1.8,0.2,2.8
		c0,0.4,0.3,0.6,0.6,0.7c1.4,1,2.8,2,4.1,3.2c2.9,2.7,4.2,6.2,4.4,10.1c0.1,2.6-0.1,5.2-0.5,7.7c-0.1,0.5-0.2,0.7-0.8,0.6
		c-2.3-0.3-4.6-0.5-7-0.7c-0.4,0-0.4-0.1-0.4-0.5c0.2-1.5,0.4-2.9,0.5-4.4C71,64,71,62,70.4,60C70.2,59.2,69.8,58.6,69.3,58.1z
		 M51.1,55.3c0,0.7,0.1,1.3,0.1,1.8c0.2,2.3,1.7,3.9,3.7,4.3c1.7,0.3,3.1-0.2,4.3-1.3c1.7-1.5,2.6-3.5,3.1-5.7
		c0-0.1-0.2-0.4-0.3-0.5c-0.8-0.3-1.6-0.6-2.4-0.8c-3.5-0.9-7.1-1.2-10.7-0.9c-2.2,0.1-4.4,0.4-6.4,1.5c-0.8,0.4-1.6,0.9-2.1,1.7
		c-0.7,1.2-0.9,2.4-0.1,3.7c0.9,1.5,2.7,1.4,3.4-0.1c0.2-0.3,0.3-0.7,0.4-1.1c0.1-0.7,0.1-1.4,0.1-2.2L51.1,55.3z"/>
	<path class="st1" d="M302.3,49.8c0.2,5.6,0.3,11.2,0.5,16.8c0,0.4-0.1,0.6-0.6,0.6c-6.2,0-12.4,0-18.6,0.1c-0.4,0-0.9,0-1.3,0
		c-0.4,0-0.6-0.1-0.5-0.5c0-2.4,0.1-4.7,0.1-7c0-3.4,0-6.8-0.1-10.1c0-2.4-0.5-4.7-1.5-6.9c-0.6-1.3-1.5-2.5-3-2.8
		c-2.3-0.5-4.2,0.5-5.3,2.9c-0.8,1.9-1.2,3.9-1.2,5.9c0,3.6,0,7.2,0,10.8c0,2.5,0.1,5,0.2,7.4c0,0.4-0.1,0.4-0.4,0.4
		c-2.6,0-5.3,0-7.9,0c-0.4,0-0.5-0.1-0.5-0.5c-0.1-6.4-0.4-12.7,0-19.1c0.2-2.7,0.6-5.4,1.7-8c1.8-4.1,4.7-6.6,9.2-7.3
		c2.5-0.4,5.1-0.5,7.6,0.1c2.5,0.6,4.3,2.1,5.7,4.1c1.8,2.4,2.6,5.2,3.1,8.1c0.7,4.4,0.7,8.8,0.7,13.3c0,0.7,0,1.3,0,1.9
		c0,0.4,0.1,0.5,0.5,0.5c1.1,0,2.2-0.1,3.3-0.1c0.4,0,0.5-0.1,0.5-0.5c-0.1-2-0.1-4.1-0.2-6.1l-0.7-20.5c0-0.7,0-0.7,0.7-0.7
		c2.4,0,4.7,0,7,0c0.4,0,0.6,0.1,0.6,0.5C302,38.5,302.2,44.1,302.3,49.8L302.3,49.8z"/>
	<path class="st1" d="M101.7,49.3c0.4,0.2,0.7,0.3,1.1,0.5c2.5,1.3,3.9,3.6,4.6,6.3c0.7,3.1,0.3,6.1-1.5,8.7
		c-1.6,2.4-3.9,3.8-6.8,4.1c-3.5,0.4-7-0.2-10.2-1.6c-4.3-1.9-7.1-5.3-8.5-9.7c-1.3-4.3-1.5-8.8-0.9-13.2c0.4-2.9,1.4-5.6,3.1-7.9
		c2.4-3.5,5.8-5.4,9.9-6c2.7-0.4,5.5-0.4,8.1,0.2c4.4,0.9,7.3,4.5,7.2,9c0,3.3-1.2,6.1-3.6,8.2c-0.6,0.5-1.4,0.9-2.1,1.3
		C101.9,49.2,101.9,49.2,101.7,49.3z M95,39.1c0.6,0.7,1.1,1.4,1.7,2.1c0.8,0.8,1.8,1,2.9,0.6c0.7-0.2,1.1-0.9,1-1.6
		c-0.1-0.9-0.7-1.7-1.6-2.1c-1.3-0.8-2.8-0.8-4.3-0.6c-3.4,0.5-5.6,2.6-6.9,5.6c-1.6,3.8-1.5,7.7-0.3,11.6c0.6,1.8,1.5,3.6,3,4.8
		c2.1,1.8,4.6,2.2,7.3,1.7c1-0.2,1.8-0.7,2.4-1.5c0.5-0.5,0.6-1.3,0.3-2c-0.3-0.7-1-1-1.7-1c-1.3-0.1-2.1,0.6-2.8,1.6
		c-0.3,0.4-0.6,0.9-0.9,1.3c-0.1-0.1-0.1-0.1-0.2-0.2c-1.1-1.3-2.3-2.6-3.4-3.9c-0.9-1-0.9-1.1-0.1-2.2c1-1.3,2.1-2.6,3.6-3.4
		c0.3-0.1,0.6-0.3,1-0.4c-0.3-0.1-0.4-0.2-0.6-0.2c-0.1-0.1-0.4-0.1-0.5-0.3c-1.8-1-3-2.6-4.1-4.3c0-0.2,0-0.4,0.1-0.5
		c0.6-0.7,1.2-1.5,1.8-2.1L95,39.1z"/>
	<path class="st1" d="M155.3,62.6c0-1.2,0-2.4,0-3.6c0-0.4,0.1-0.5,0.5-0.5c2.2,0.3,4.5-0.2,6.5-1.3c1.9-1,3.1-2.9,3.4-5
		c0.3-2,0.1-4.1-1-5.9s-2.7-2.8-4.6-3.4c-1.1-0.3-2.2-0.5-3.3-0.6c-1.6-0.2-1.6-0.1-1.6-1.7c0-2,0.1-4,0.1-6c0-0.4,0.1-0.5,0.5-0.5
		c4.7,0,9,1.3,12.6,4.4c2.8,2.4,4.6,5.8,5,9.5c0.4,2.8,0.2,5.7-0.5,8.4c-1,3.9-3.3,6.6-6.9,8.3c-3.3,1.6-6.9,2-10.5,1.9
		c-0.4,0-0.4-0.2-0.4-0.5c0-1.2,0-2.4,0-3.6L155.3,62.6z"/>
	<path class="st1" d="M324.2,53.1c0,2.4-0.1,4.4-0.8,6.3c-1.1,3.1-3.4,4.7-6.6,5.1c-1.5,0.2-3,0.2-4.4-0.1c-2.7-0.6-4.7-2.3-5.9-4.7
		c-1.2-2.4-1.5-4.9-1.3-7.5c0.1-1.8,0.6-3.6,1.4-5.3c1.5-2.8,3.9-4.2,7-4.5c2.3-0.2,4.5,0.1,6.4,1.5c1.8,1.3,3,3.2,3.7,5.3
		C324.1,50.5,324.3,51.8,324.2,53.1z M317.8,53.1c-0.1-1-0.4-2-1-2.8c-1.1-1.5-3.1-1.5-4.1,0.1c-0.4,0.7-0.7,1.6-0.8,2.4
		c-0.1,1.6,0,3.1,1.1,4.3c0.9,1,2.4,1.2,3.5,0.3c0.2-0.2,0.4-0.5,0.6-0.7C317.7,55.7,317.9,54.6,317.8,53.1L317.8,53.1z"/>
	
		<image style="overflow:visible;enable-background:new    ;" width="140" height="51" xlink:href="55F152BB.png"  transform="matrix(0.2544 0 0 0.2544 75.3631 17.321)">
	</image>
</g>
</svg>
