<?xml version="1.0" encoding="utf-8"?>
<!-- Generator: Adobe Illustrator 24.3.0, SVG Export Plug-In . SVG Version: 6.00 Build 0)  -->
<svg version="1.1" id="Layer_1" xmlns="http://www.w3.org/2000/svg" xmlns:xlink="http://www.w3.org/1999/xlink" x="0px" y="0px"
	 viewBox="0 0 295 76" style="enable-background:new 0 0 295 76;" xml:space="preserve">
<style type="text/css">
	.st0{fill:none;}
	.st1{fill:#5A3B1A;}
</style>
<g>
	<rect x="49.2" y="7" class="st0" width="75.2" height="15"/>
	<path class="st1" d="M89.6,22c-2.9,2.8-5.7,5.5-8.5,8.3c-0.5-0.5-1-0.9-1.4-1.3c-3.4-2.8-7.2-4.8-11.5-5.6
		C62.4,22.4,57,23.5,52,26.6c-2.8,1.7-5.3,4-7.3,6.7c-0.2,0.2-0.3,0.4-0.6,0.2c-3.1-2.1-6.2-4.2-9.3-6.3c-0.1-0.1-0.2-0.2-0.3-0.3
		c6-8.1,13.8-13.6,23.9-15.3C71.1,9.4,82.9,15,89.6,22z"/>
	<path class="st1" d="M163.9,38.8c-0.5-0.2-1.1-0.2-1.7-0.3c-3.7,0-6.6,1.5-8.2,5c-1.4,2.9-1.6,6.1-1.3,9.3c0.3,5,1.5,9.9,2.7,14.8
		c-0.1,0.1-0.2,0.1-0.3,0.1c-2.5,0.2-4.9,0.3-7.3,0.5c-0.5,0-0.6-0.2-0.7-0.5c-0.6-3.8-1.2-7.6-1.7-11.4c-0.2-1.6-0.2-3.2-0.2-4.8
		c0-1.6,0-3.2,0-4.9c0.1-3.9,1.1-7.4,3.7-10.4c1.8-2,4.1-3.4,6.7-4.1c4.5-1.2,9-1.3,13.4,0c1.4,0.5,2.7,1.1,3.8,2
		c0.2,0.2,0.4,0.2,0.7,0.2c3.5-1.2,7-0.9,10.5,0.1c2.3,0.7,4.5,2,6.1,3.8c0.1,0.1,0.1,0.2,0.1,0.2c0.8-0.6,1.4-1.3,2.1-1.8
		c2-1.5,4.2-2.2,6.7-2.5c1.7-0.2,3.4-0.1,5.1,0.3c2.9,0.7,4.8,2.5,6,5.2c0.9,2.2,1.4,4.5,1.7,6.8c0.2,2,0.5,4,0.8,6
		c0.2,0.8,0.4,1.5,0.7,2.1c0.9,1.8,2.2,2.6,4.7,1.9c1.1-0.3,1.7-1.2,2.1-2.1c0.7-1.4,1.1-2.9,1.1-4.4c0.3-5.6-0.8-11.2-3.1-16.3
		c-0.1-0.1-0.1-0.2-0.2-0.4c0.7-0.2,1.3-0.4,2-0.6c2-0.6,4-1.2,6-1.8c0.4-0.1,0.5,0,0.6,0.3c1.3,4.1,2.3,8.2,2.8,12.4
		c0.5,3.4,0.7,6.7,0.4,10.1c-0.1,1.5-0.5,3-1.1,4.5c-1,2.5-3.1,4.5-5.7,5.3c-3.2,1.1-6.5,1.3-9.8,0.7c-4.3-0.8-7.1-3.4-8.3-7.6
		c-0.5-2-0.8-4-1.1-6c-0.4-2.4-0.5-4.8-1.3-7.2c-0.7-1.7-2.3-2.4-4-2c-2.1,0.5-3,2-3.4,3.9c-0.3,1.5-0.5,3-0.4,4.6
		c0.1,3.3,0.4,6.6,0.6,9.8c0.1,1.8,0.3,3.6,0.5,5.4c0,0.4-0.1,0.5-0.4,0.5c-2.1,0.1-4.1,0.3-6.2,0.4l-2.3,0.2c0-0.2,0-0.4,0-0.6
		c0.1-3.3,0.2-6.6,0.2-9.9c0.1-3.1-0.1-6.1-1.1-9.1c-0.7-2-1.8-3.8-3.6-5c-0.9-0.6-1.9-1-2.9-1.1c-0.1,0-0.2,0-0.3,0
		c0.4,0.7,0.8,1.4,1.2,2.1c1.4,2.6,2,5.4,2.4,8.2c0.3,2.2,0.2,4.4-0.3,6.6c-1.1,4.7-4,7.8-8.7,8.9c-2.4,0.6-5,0.7-7.4,0.3
		c-5.1-0.9-8.3-3.8-9.6-8.8c-1.4-5.6-0.3-10.7,3.2-15.2c0.9-1.1,2-2,3.2-2.8c0.2-0.2,0.5-0.3,0.7-0.4L163.9,38.8z M163.6,53.2
		c0,0.4,0.1,1.1,0.2,1.7c0.3,2,1.6,3.5,3.5,3.9c1.6,0.3,3.3,0.3,4.9-0.2c1.5-0.5,2.5-1.4,2.8-2.9c0.2-0.7,0.3-1.4,0.3-2.1
		c0.2-2.7-0.6-5.2-1.6-7.7c-0.4-1.1-1.1-2.1-2-2.9c-0.2-0.2-0.5-0.3-0.7-0.2c-2,0.4-3.7,1.4-5,2.9C164.3,47.7,163.7,50.3,163.6,53.2
		L163.6,53.2z"/>
	<path class="st1" d="M99.7,65.5H79.2c-0.8,0-0.8,0-0.8-0.7c0-4.5,0-8.9,0.1-13.3c0.1-3,0.3-6,1.2-8.8c0.8-2.6,1.8-5,3.7-7
		c2-2.2,4.7-3.5,7.6-3.8c2.9-0.3,5.8-0.2,8.7,0.6c4,1.1,6.3,3.8,7.4,7.8c0.7,2.6,0.8,5.2,0.9,7.9c0,1.8,0,3.6,0,5.4
		c0,0.8-0.1,0.9-0.8,0.9h-17c-0.8,0-0.8,0-0.8-0.8c0-1.9,0-3.8,0-5.6c0-0.5,0.2-0.5,0.5-0.5c2.9,0,5.9,0,8.8,0
		c0.5,0,0.6-0.1,0.6-0.6c0.2-1.3,0.1-2.6-0.2-3.8c-0.4-2.3-1.8-3.5-4.1-3.6c-1.5,0-2.9,0.1-4.2,0.8c-1.2,0.7-2.2,1.8-2.9,3.1
		c-1,2-1.3,4-1.3,6.2c-0.1,2.7,0,5.4,0,8.2c0,0.5,0.3,0.5,0.6,0.5h23.6c0.9,0,0.9,0,0.9-0.9c0.1-9,0.1-18,0.2-27
		c0-0.5,0.2-0.6,0.6-0.6c2.6,0,5.2,0,7.8,0c0.5,0,0.6,0.1,0.6,0.6c0,11.5,0,23,0,34.5c0,0.5-0.2,0.7-0.7,0.7
		C113.4,65.5,106.5,65.5,99.7,65.5L99.7,65.5z"/>
	<path class="st1" d="M38.1,55.4c-0.5,1.2-0.9,2.3-1.4,3.4c-1.7,3.3-4.1,5.7-7.5,7.2c-4.2,1.8-9.4,0.6-12.7-2.8
		c-0.2-0.2-0.2-0.3-0.4-0.4c-0.6,0.5-1.1,1-1.7,1.4C11.9,66,9,66.2,6,65.2c-3.8-1.3-5.9-4.4-6-8.6c-0.1-4.5,1.8-8,5.6-10.5
		c3.2-2.1,6.7-3.1,10.4-3.5c4.3-0.5,8.6-0.3,12.8,0.6c0.7,0.2,1.4,0.4,2.1,0.5c0-0.1,0-0.2,0-0.3c-0.4-2-1.7-3.6-3.6-4.3
		c-4.1-1.7-7.9-1.1-11.5,1.1c-0.5,0.4-1.1,0.8-1.6,1.3c-0.1,0.1-0.4,0.2-0.5,0.1c-2.1-1.3-4.2-2.6-6.4-4c0.3-0.2,0.5-0.4,0.7-0.6
		c2.5-2.3,5.2-4.3,8.3-5.6c1.9-0.8,4-1.1,6-1c3.6,0.1,6.9,1,9.9,3.1c3.5,2.4,5.7,6.1,6.3,10.2c0.1,0.9,0.2,1.9,0.2,2.8
		c0,0.5,0.3,0.6,0.6,0.8c1.4,1.1,2.9,2,4.1,3.2c2.9,2.7,4.2,6.3,4.4,10.2c0.1,2.6-0.1,5.2-0.5,7.8c-0.1,0.5-0.2,0.7-0.8,0.6
		c-2.3-0.3-4.7-0.5-7-0.7c-0.4,0-0.5-0.2-0.4-0.5c0.2-1.5,0.4-2.9,0.5-4.4c0.1-2.1,0.2-4.1-0.5-6.2C39,56.5,38.6,55.9,38.1,55.4z
		 M19.7,52.6c0,0.7,0.1,1.3,0.1,1.9c0.2,2.3,1.7,3.9,3.8,4.3c1.7,0.3,3.1-0.2,4.4-1.4c1.7-1.5,2.6-3.5,3.1-5.7
		c0-0.1-0.2-0.4-0.3-0.5c-0.8-0.3-1.6-0.6-2.5-0.8c-3.5-0.9-7.2-1.2-10.8-0.9c-2.2,0.2-4.4,0.5-6.4,1.5c-0.8,0.4-1.6,0.9-2.1,1.7
		c-0.7,1.2-0.9,2.5-0.2,3.7c0.9,1.5,2.7,1.4,3.5-0.2c0.2-0.3,0.3-0.7,0.4-1.1c0.1-0.7,0.1-1.4,0.2-2.2L19.7,52.6z"/>
	<path class="st1" d="M272.9,47c0.2,5.6,0.3,11.3,0.5,16.9c0,0.5-0.1,0.6-0.6,0.6c-6.3,0-12.5,0-18.7,0.1c-0.5,0-0.9,0-1.4,0
		c-0.5,0-0.6-0.1-0.5-0.5c0-2.4,0.1-4.7,0.1-7.1c0-3.4,0-6.8-0.1-10.2c0-2.4-0.5-4.8-1.5-6.9c-0.6-1.4-1.5-2.5-3-2.9
		c-2.3-0.5-4.2,0.5-5.3,2.9c-0.8,1.9-1.2,3.9-1.2,6c0,3.6,0,7.2,0,10.9c0,2.5,0.1,5,0.2,7.5c0,0.4-0.1,0.5-0.5,0.5c-2.6,0-5.3,0-8,0
		c-0.4,0-0.5-0.1-0.5-0.5c-0.1-6.4-0.5-12.8,0-19.3c0.2-2.8,0.6-5.5,1.7-8.1c1.8-4.1,4.8-6.6,9.2-7.4c2.6-0.5,5.1-0.5,7.7,0.1
		c2.5,0.6,4.3,2.1,5.8,4.1c1.8,2.4,2.6,5.3,3.1,8.2c0.7,4.5,0.7,8.9,0.7,13.4c0,0.7,0,1.3,0,2c0,0.4,0.1,0.5,0.5,0.5
		c1.1,0,2.2-0.1,3.3-0.1c0.4,0,0.5-0.2,0.5-0.5c-0.1-2-0.2-4.1-0.2-6.1l-0.7-20.6c0-0.7,0-0.7,0.7-0.7c2.4,0,4.7,0,7.1,0
		c0.4,0,0.6,0.1,0.6,0.5C272.6,35.7,272.7,41.3,272.9,47L272.9,47z"/>
	<path class="st1" d="M70.7,46.5c0.4,0.2,0.8,0.3,1.1,0.5c2.6,1.4,4,3.6,4.6,6.3c0.8,3.1,0.3,6.1-1.5,8.8c-1.6,2.4-3.9,3.9-6.9,4.1
		c-3.5,0.4-7-0.2-10.3-1.6c-4.4-1.9-7.1-5.3-8.5-9.8c-1.4-4.4-1.5-8.8-0.9-13.4c0.4-2.9,1.4-5.6,3.1-8c2.4-3.5,5.8-5.4,10-6.1
		c2.7-0.4,5.5-0.4,8.2,0.2c4.4,0.9,7.3,4.6,7.3,9.1c0,3.3-1.2,6.1-3.7,8.3c-0.6,0.5-1.4,0.9-2.1,1.3C71,46.4,70.9,46.4,70.7,46.5z
		 M63.9,36.2c0.6,0.7,1.1,1.4,1.7,2.1c0.8,0.8,1.8,1,2.9,0.6c0.7-0.2,1.1-0.9,1-1.7c-0.2-0.9-0.7-1.7-1.6-2.2
		c-1.4-0.8-2.9-0.8-4.3-0.6c-3.4,0.5-5.7,2.6-7,5.7c-1.6,3.8-1.5,7.8-0.3,11.7c0.6,1.9,1.5,3.6,3,4.9c2.1,1.8,4.7,2.2,7.3,1.7
		c1-0.2,1.9-0.7,2.5-1.5c0.5-0.5,0.6-1.4,0.3-2c-0.3-0.8-1-1-1.7-1.1c-1.3-0.1-2.1,0.6-2.8,1.6c-0.3,0.4-0.6,0.9-0.9,1.3
		c-0.1-0.1-0.2-0.1-0.2-0.2c-1.1-1.3-2.3-2.6-3.5-4c-0.9-1.1-0.9-1.1-0.1-2.2c1-1.4,2.1-2.6,3.6-3.4c0.3-0.2,0.6-0.3,1-0.5
		c-0.3-0.1-0.4-0.2-0.6-0.2c-0.2-0.1-0.4-0.2-0.5-0.3c-1.8-1-3-2.6-4.1-4.4c0-0.2,0-0.4,0.1-0.5c0.6-0.8,1.2-1.5,1.9-2.2L63.9,36.2z
		"/>
	<path class="st1" d="M124.7,59.9c0-1.2,0-2.4,0-3.6c0-0.4,0.2-0.5,0.5-0.5c2.3,0.3,4.5-0.2,6.5-1.3c1.9-1,3.2-2.9,3.4-5
		c0.3-2,0.1-4.1-1-5.9c-1.1-1.8-2.7-2.9-4.7-3.5c-1.1-0.3-2.2-0.5-3.3-0.6c-1.7-0.2-1.7-0.1-1.6-1.7c0-2,0.1-4,0.1-6.1
		c0-0.4,0.1-0.5,0.5-0.5c4.8,0,9.1,1.3,12.7,4.5c2.8,2.4,4.6,5.9,5,9.6c0.4,2.8,0.2,5.7-0.5,8.5c-1,3.9-3.3,6.6-6.9,8.4
		c-3.3,1.6-6.9,2-10.6,1.9c-0.4,0-0.4-0.2-0.4-0.5c0-1.2,0-2.4,0-3.6L124.7,59.9z"/>
	<path class="st1" d="M295,50.4c0,2.4-0.2,4.4-0.8,6.3c-1.1,3.1-3.4,4.8-6.6,5.2c-1.5,0.2-3,0.2-4.5-0.1c-2.8-0.6-4.7-2.3-6-4.8
		c-1.2-2.4-1.5-4.9-1.3-7.5c0.1-1.8,0.6-3.6,1.4-5.3c1.5-2.8,3.9-4.2,7-4.5c2.3-0.2,4.5,0.1,6.4,1.5c1.8,1.4,3,3.2,3.7,5.4
		C294.8,47.7,295,49,295,50.4z M288.5,50.4c-0.1-1-0.4-2-1-2.8c-1.1-1.5-3.1-1.5-4.2,0.1c-0.5,0.7-0.7,1.6-0.8,2.4
		c-0.1,1.6,0,3.1,1.1,4.4c0.9,1.1,2.5,1.2,3.5,0.3c0.2-0.2,0.5-0.5,0.6-0.8C288.4,52.9,288.6,51.9,288.5,50.4L288.5,50.4z"/>
	
		<image style="overflow:visible;enable-background:new    ;" width="140" height="51" xlink:href="55F152BB.png"  transform="matrix(0.2564 0 0 0.2564 44.1781 14.3005)">
	</image>
</g>
</svg>
